<svg xmlns="http://www.w3.org/2000/svg" width="114.912" height="33.994" viewBox="0 0 114.912 33.994">
    <path data-name="Rectangle 24" d="m1-3 9.5 3 8-8 10 7L39-3l-4.5-14.5-16 5-9-5L0-16z" transform="translate(73.08 31.304)" style="fill:#f1a501"/>
    <path d="M0 23.368v-2.162l6.118-1.1v2.99a5.261 5.261 0 0 0 1.242 3.68 4.511 4.511 0 0 0 3.266 1.2 3.981 3.981 0 0 0 3.128-1.288 4.869 4.869 0 0 0 1.2-3.45V.69H21.3v22.54a10.638 10.638 0 0 1-2.99 7.636 10.1 10.1 0 0 1-7.636 3.128A10.6 10.6 0 0 1 2.9 31.1 10.541 10.541 0 0 1 0 23.368z"/>
    <path data-name="Jadoo" d="M22.757 27.14a6.032 6.032 0 0 1 1.886-4.646 8.983 8.983 0 0 1 4.876-2.208l5.566-.828q1.7-.23 1.7-1.61a2.614 2.614 0 0 0-1.012-2.116 4.2 4.2 0 0 0-2.806-.828 4.374 4.374 0 0 0-3.082 1.058 4 4 0 0 0-1.242 2.622l-5.428-1.15a7.96 7.96 0 0 1 2.9-5.2 9.966 9.966 0 0 1 6.808-2.254q5.06 0 7.452 2.438a8.343 8.343 0 0 1 2.392 6.164v11.134a20.817 20.817 0 0 0 .276 3.588h-5.612a12.748 12.748 0 0 1-.23-2.714 7.375 7.375 0 0 1-6.67 3.358 7.945 7.945 0 0 1-5.658-2.024 6.4 6.4 0 0 1-2.116-4.784zm9.062 2.254a5.214 5.214 0 0 0 3.542-1.2 5.111 5.111 0 0 0 1.426-4.048v-1.008l-5.106.782q-2.806.414-2.806 2.852a2.57 2.57 0 0 0 .782 1.886 3.029 3.029 0 0 0 2.162.736zM66.738 0v29.21q0 2.254.184 4.094H61.08a13.453 13.453 0 0 1-.23-2.622 5.681 5.681 0 0 1-2.484 2.3 8.162 8.162 0 0 1-3.864.874 10.4 10.4 0 0 1-7.958-3.356 12.266 12.266 0 0 1-3.082-8.556 12.186 12.186 0 0 1 3.038-8.42 10.088 10.088 0 0 1 7.82-3.4q4.876 0 6.394 2.806V0zM49.626 21.942a6.845 6.845 0 0 0 1.564 4.738 5.246 5.246 0 0 0 4.048 1.7 5.129 5.129 0 0 0 4-1.748A6.845 6.845 0 0 0 60.8 21.9a6.433 6.433 0 0 0-1.564-4.6 5.193 5.193 0 0 0-4-1.7 5.337 5.337 0 0 0-4.048 1.7 6.6 6.6 0 0 0-1.562 4.642zM75.767 26.726a5.582 5.582 0 0 0 4.094 1.7 5.432 5.432 0 0 0 4.048-1.7 6.4 6.4 0 0 0 1.7-4.738 6.4 6.4 0 0 0-1.7-4.738 5.432 5.432 0 0 0-4.048-1.7 5.582 5.582 0 0 0-4.094 1.7 6.508 6.508 0 0 0-1.656 4.738 6.508 6.508 0 0 0 1.656 4.738zm-4.416-13.34a11.546 11.546 0 0 1 8.51-3.4 11.394 11.394 0 0 1 8.464 3.4 11.659 11.659 0 0 1 3.4 8.6 11.659 11.659 0 0 1-3.4 8.6 11.394 11.394 0 0 1-8.464 3.4 11.546 11.546 0 0 1-8.51-3.4 11.744 11.744 0 0 1-3.358-8.6 11.744 11.744 0 0 1 3.358-8.6z"/>
    <path data-name="Jadoo" d="M98.95 26.726a5.582 5.582 0 0 0 4.094 1.7 5.432 5.432 0 0 0 4.048-1.7 6.4 6.4 0 0 0 1.7-4.738 6.4 6.4 0 0 0-1.7-4.738 5.432 5.432 0 0 0-4.048-1.7 5.582 5.582 0 0 0-4.094 1.7 6.508 6.508 0 0 0-1.656 4.738 6.508 6.508 0 0 0 1.656 4.738zm-4.416-13.34a11.546 11.546 0 0 1 8.51-3.4 11.394 11.394 0 0 1 8.464 3.4 11.659 11.659 0 0 1 3.4 8.6 11.659 11.659 0 0 1-3.4 8.6 11.394 11.394 0 0 1-8.464 3.4 11.546 11.546 0 0 1-8.51-3.4 11.744 11.744 0 0 1-3.358-8.6 11.744 11.744 0 0 1 3.358-8.6z"/>
</svg>
